<svg id="Capa_1" enable-background="new 0 0 512 512" height="512" viewBox="0 0 512 512" width="512" xmlns="http://www.w3.org/2000/svg"><g><path d="m256 103.286c-84.207 0-152.714 68.507-152.714 152.714s68.507 152.714 152.714 152.714 152.714-68.507 152.714-152.714-68.507-152.714-152.714-152.714zm0 275.428c-67.665 0-122.714-55.049-122.714-122.714s55.049-122.714 122.714-122.714 122.714 55.049 122.714 122.714-55.049 122.714-122.714 122.714z"/><path d="m510.737 230.493-.985-9.962-37.142-11.291c-1.534-7.142-3.423-14.207-5.649-21.141l26.536-28.354-4.126-9.121c-6.976-15.426-15.567-30.263-25.536-44.101l-5.845-8.113-37.798 8.825c-4.885-5.387-10.042-10.544-15.428-15.428l8.826-37.797-8.113-5.845c-13.841-9.972-28.68-18.563-44.103-25.537l-9.12-4.124-28.354 26.535c-6.933-2.227-13.998-4.114-21.14-5.649l-11.29-37.142-9.963-.985c-8.465-.838-17.047-1.263-25.507-1.263s-17.042.425-25.507 1.263l-9.963.985-11.29 37.142c-7.141 1.534-14.207 3.423-21.14 5.649l-28.354-26.535-9.121 4.125c-15.424 6.975-30.262 15.566-44.101 25.536l-8.113 5.845 8.825 37.798c-5.387 4.885-10.544 10.042-15.428 15.428l-37.797-8.826-5.845 8.113c-9.972 13.842-18.564 28.681-25.537 44.102l-4.125 9.121 26.536 28.354c-2.227 6.934-4.115 13.999-5.65 21.14l-37.14 11.29-.987 9.962c-.838 8.464-1.263 17.046-1.263 25.508 0 8.463.425 17.045 1.263 25.508l.987 9.961 37.14 11.291c1.535 7.141 3.423 14.207 5.65 21.141l-26.536 28.354 4.125 9.121c6.977 15.426 15.568 30.264 25.538 44.102l5.844 8.111 37.797-8.824c4.885 5.388 10.041 10.543 15.427 15.428l-8.826 37.797 8.113 5.845c13.841 9.971 28.679 18.563 44.102 25.537l9.121 4.124 28.354-26.534c6.934 2.227 14 4.115 21.141 5.649l11.291 37.142 9.963.985c8.464.837 17.045 1.262 25.506 1.262s17.042-.425 25.507-1.263l9.962-.985 11.291-37.142c7.142-1.534 14.207-3.423 21.141-5.649l28.354 26.536 9.121-4.126c15.426-6.976 30.263-15.567 44.101-25.536l8.113-5.845-8.825-37.798c5.387-4.885 10.544-10.042 15.428-15.428l37.797 8.826 5.845-8.113c9.972-13.841 18.563-28.68 25.537-44.103l4.124-9.12-26.535-28.354c2.227-6.933 4.114-13.998 5.649-21.14l37.142-11.291.985-9.963c.838-8.464 1.263-17.046 1.263-25.506 0-8.461-.425-17.042-1.263-25.507zm-29.091 38.165-35.274 10.724-1.561 9.131c-1.972 11.544-5.016 22.931-9.047 33.846l-3.207 8.686 25.189 26.917c-3.791 7.478-8.016 14.771-12.638 21.815l-35.908-8.385-5.923 7.113c-7.468 8.967-15.803 17.302-24.774 24.773l-7.112 5.923 8.384 35.908c-7.044 4.622-14.336 8.847-21.814 12.639l-26.917-25.191-8.686 3.208c-10.915 4.031-22.303 7.075-33.847 9.047l-9.131 1.561-10.724 35.274c-8.457.471-16.856.471-25.315 0l-10.723-35.274-9.131-1.561c-11.544-1.972-22.932-5.016-33.846-9.047l-8.686-3.207-26.917 25.189c-7.478-3.791-14.77-8.017-21.814-12.639l8.384-35.907-7.113-5.923c-8.968-7.469-17.303-15.804-24.774-24.774l-5.923-7.112-35.908 8.384c-4.621-7.043-8.846-14.336-12.638-21.814l25.19-26.917-3.207-8.686c-4.031-10.916-7.075-22.305-9.048-33.847l-1.56-9.131-35.274-10.724c-.235-4.228-.353-8.46-.353-12.657s.118-8.43.354-12.658l35.273-10.724 1.561-9.13c1.973-11.543 5.017-22.931 9.048-33.847l3.207-8.686-25.19-26.917c3.791-7.478 8.017-14.771 12.639-21.815l35.908 8.385 5.923-7.113c7.467-8.967 15.802-17.302 24.774-24.773l7.112-5.923-8.384-35.908c7.044-4.622 14.336-8.847 21.815-12.639l26.917 25.191 8.686-3.208c10.915-4.031 22.302-7.075 33.846-9.047l9.131-1.561 10.723-35.274c8.459-.471 16.857-.471 25.316 0l10.724 35.274 9.131 1.561c11.544 1.972 22.931 5.016 33.846 9.047l8.686 3.207 26.917-25.189c7.478 3.791 14.771 8.016 21.815 12.638l-8.385 35.908 7.113 5.923c8.967 7.468 17.302 15.803 24.773 24.774l5.923 7.112 35.908-8.384c4.622 7.044 8.847 14.336 12.639 21.814l-25.191 26.917 3.208 8.686c4.031 10.915 7.075 22.303 9.047 33.847l1.561 9.131 35.274 10.724c.235 4.229.354 8.46.354 12.657s-.12 8.429-.356 12.658z"/><path d="m256 172.143c-46.239 0-83.857 37.618-83.857 83.857s37.618 83.857 83.857 83.857 83.857-37.618 83.857-83.857-37.618-83.857-83.857-83.857zm0 137.714c-29.697 0-53.857-24.16-53.857-53.857s24.16-53.857 53.857-53.857 53.857 24.16 53.857 53.857-24.16 53.857-53.857 53.857z"/></g></svg>